<?xml version="1.0" encoding="UTF-8" standalone="no"?>
<svg
   width="95.990768mm"
   height="146.63283mm"
   viewBox="0 0 95.990768 146.63283"
   version="1.1"
   id="svg1122"
   xmlns="http://www.w3.org/2000/svg"
   xmlns:svg="http://www.w3.org/2000/svg">
  <defs
     id="defs8" />
  <path
     style="fill:#f2f1f4;stroke:none;fill-opacity:1"
     d="m 57.46505,139.00786 -7.62151,-7.62491 2.32516,-2.33599 2.32517,-2.33599 -1.33768,-0.32091 c -2.47757,-0.59436 -4.25712,-2.39029 -4.62948,-4.67211 -0.24614,-1.50829 -0.2721,-1.45951 0.83758,-1.57335 0.54089,-0.0555 1.36771,-0.39399 1.83737,-0.75222 l 0.85394,-0.65133 -0.42584,0.74198 c -0.8299,1.44602 0.23006,3.69808 1.9429,4.12798 1.20359,0.30208 2.54189,-0.75401 8.08158,-6.37738 3.04682,-3.09285 6.5133,-6.57968 7.70329,-7.74851 2.4371,-2.39377 2.93495,-3.37891 2.47811,-4.9037 -0.52353,-1.74736 -2.33274,-2.31926 -4.24724,-1.34256 -1.26197,0.64381 -1.39827,0.65198 -1.09676,0.0658 0.13019,-0.25313 0.18728,-0.59733 0.12687,-0.76488 -0.14167,-0.39291 0.20564,-0.59837 1.20896,-0.71519 0.44356,-0.0516 0.98544,-0.24243 1.20418,-0.42397 0.21874,-0.18153 0.39771,-0.24782 0.39771,-0.1473 0,0.10051 0.37746,-0.11266 0.83881,-0.47371 l 0.83881,-0.65647 0.9869,0.50348 c 1.35994,0.69379 2.35499,2.09833 2.69959,3.81054 l 0.29025,1.44216 2.75825,-2.7682 2.75826,-2.7682 7.69527,7.69196 7.69527,7.69195 -4.75821,4.76343 -4.75821,4.76343 1.4552,1.37627 c 1.31271,1.2415 1.47225,1.51274 1.62935,2.77009 0.15221,1.21827 0.33643,1.55369 1.46252,2.66284 0.7086,0.69794 1.28837,1.3989 1.28837,1.55768 0,0.35892 -5.34783,5.64844 -5.71071,5.64844 -0.14525,0 -0.82589,-0.49452 -1.51254,-1.09893 -1.10349,-0.97133 -1.4388,-1.11639 -2.8877,-1.24922 -1.58145,-0.14499 -2.48827,-0.61402 -3.97697,-2.05699 -0.18653,-0.18081 -0.43733,-0.32874 -0.55733,-0.32874 -0.11999,0 -2.93822,2.72198 -6.26273,6.04885 -3.32451,3.32686 -6.10547,6.04885 -6.17991,6.04885 -0.0744,0 -3.56502,-3.43122 -7.75685,-7.62492 z m 15.25369,-3.74955 c 4.04928,-4.08626 10.05465,-10.15252 13.34526,-13.48058 l 5.98294,-6.05103 -5.72018,-5.70192 -5.72018,-5.70193 -13.39117,13.54737 -13.39117,13.54738 5.63057,5.63514 c 3.09681,3.09932 5.69155,5.63513 5.76609,5.63513 0.0745,0 3.44856,-3.3433 7.49784,-7.42956 z m 15.82417,0.52599 c 0.95161,-1.05706 0.94072,-1.20677 -0.16415,-2.25781 -0.85956,-0.81768 -1.06585,-1.19664 -1.06585,-1.95799 0,-1.41058 -0.347,-2.05558 -1.71409,-3.18611 l -1.23864,-1.02431 -2.37579,2.45627 -2.37579,2.45626 1.28797,1.12683 c 0.93582,0.81873 1.53964,1.13956 2.20845,1.17339 0.50626,0.0256 1.23811,0.0695 1.62633,0.0975 0.38822,0.028 1.15748,0.41971 1.70946,0.87049 1.20687,0.98562 1.41404,1.00982 2.1021,0.24552 z m -63.95395,4.01065 c -3.32451,-3.32687 -6.14274,-6.04885 -6.26273,-6.04885 -0.12,0 -0.3708,0.14793 -0.55733,0.32874 -1.4887,1.44297 -2.39552,1.912 -3.97697,2.05699 -1.4489,0.13283 -1.78421,0.27789 -2.8877,1.24922 -0.68665,0.60441 -1.36729,1.09893 -1.51254,1.09893 -0.36288,0 -5.71071,-5.28952 -5.71071,-5.64844 0,-0.15878 0.57977,-0.85974 1.28837,-1.55768 1.12609,-1.10915 1.31031,-1.44457 1.46252,-2.66284 0.1571,-1.25735 0.31664,-1.52859 1.62935,-2.7701 L 9.51642,124.46466 4.75821,119.70123 0,114.9378 l 7.69527,-7.69196 7.69527,-7.691954 2.75826,2.768204 2.75825,2.7682 0.29025,-1.44216 c 0.4863,-2.41629 1.9581,-3.841664 4.74042,-4.590864 0.98679,-0.26571 1.09743,-0.38292 1.24754,-1.3217 0.31526,-1.97153 2.56878,-4.22724 4.77916,-4.78382 1.02869,-0.25903 1.11448,-0.35662 1.55225,-1.76562 0.58195,-1.87312 2.54955,-3.88459 4.04622,-4.13645 1.75803,-0.29584 1.82018,-0.34398 2.001,-1.54983 0.32258,-2.15112 2.12884,-3.95757 4.61809,-4.61859 1.31172,-0.34833 1.56801,-0.60533 1.57394,-1.57832 0.002,-0.36354 0.41436,-1.2703 0.91588,-2.01502 0.68767,-1.02113 1.26559,-1.52137 2.35065,-2.03469 0.79134,-0.37436 1.68057,-0.68066 1.97607,-0.68066 0.37175,0 0.58684,-0.22279 0.69821,-0.72323 0.33793,-1.51849 0.46604,-1.80875 1.31015,-2.96848 1.66062,-2.28154 4.43634,-2.97674 6.8977,-1.72759 0.68227,0.34624 1.94868,1.35219 2.81425,2.23544 0.86556,0.88325 1.73935,1.6059 1.94174,1.6059 0.20239,0 4.28725,-3.89886 9.07747,-8.66415 10.40789,-10.3537 10.03649,-10.00838 10.76428,-10.00838 0.85311,0 8.33345,7.36478 8.33345,8.20471 0,0.61899 -0.44538,1.08114 -14.79338,15.35017 -2.27818,2.26564 -4.14215,4.24005 -4.14215,4.38758 0,0.14753 0.80123,1.11171 1.7805,2.14263 1.91638,2.01744 2.4274,3.12495 2.4274,5.26074 0,2.75482 -2.05067,5.06729 -4.86538,5.48652 -0.89066,0.13266 -1.18347,0.45548 -1.18347,1.30476 0,1.12525 -1.08184,2.86817 -2.28456,3.680584 -0.84546,0.57108 -2.06934,1.07681 -3.39833,1.40423 -0.16034,0.0395 -0.3656,0.53505 -0.45613,1.10121 -0.32575,2.03713 -2.61851,4.28992 -4.83465,4.75036 -0.91248,0.18959 -1.01306,0.31018 -1.5435,1.85061 -0.83467,2.42389 -2.36122,3.81511 -4.60689,4.19848 -1.09056,0.18617 -1.12308,0.22176 -1.42426,1.55902 -0.28687,1.27375 -1.34274,3.21992 -1.74914,3.22401 -0.0982,0.001 -0.35705,0.18038 -0.57532,0.39865 -0.21827,0.21828 -1.08401,0.55292 -1.92387,0.74367 l -1.52702,0.3468 -0.30327,1.3657 c -0.52309,2.35555 -2.09473,3.88452 -4.65442,4.52805 l -1.27256,0.31993 2.32094,2.33174 2.32093,2.33174 -7.62151,7.62491 c -4.19184,4.1937 -7.68243,7.62492 -7.75686,7.62492 -0.0745,0 -2.8554,-2.72199 -6.17991,-6.04885 z m 11.94701,-3.5312 5.63057,-5.63513 -13.39118,-13.54738 -13.39117,-13.54737 -5.72018,5.70193 -5.72018,5.70192 5.98294,6.05103 c 15.37338,15.54833 20.71801,20.91014 20.8431,20.91014 0.0745,0 2.66928,-2.53581 5.7661,-5.63514 z M 9.51673,134.75856 c 0.57533,-0.45567 1.36161,-0.85136 1.7473,-0.87931 0.38569,-0.0279 1.11546,-0.0718 1.62172,-0.0974 0.66881,-0.0338 1.27263,-0.35466 2.20845,-1.17339 l 1.28796,-1.12683 -2.37578,-2.45626 -2.37579,-2.45627 -1.23864,1.02431 c -1.36709,1.13053 -1.71409,1.77553 -1.71409,3.18611 0,0.76135 -0.20629,1.14031 -1.06585,1.95799 -1.10487,1.05104 -1.11576,1.20075 -0.16415,2.25781 0.68942,0.76581 0.82221,0.75061 2.06887,-0.23676 z M 43.54787,122.2265 c 0.6313,-0.46057 1.1601,-1.58974 1.1601,-2.47722 0,-0.27811 -0.30823,-1.03161 -0.68496,-1.67444 -0.64983,-1.10886 -0.663,-1.20229 -0.25693,-1.82204 0.51807,-0.79067 1.15629,-0.8229 2.51985,-0.12726 1.79063,0.9135 3.71037,0.52518 4.18882,-0.8473 0.41048,-1.17752 0.35019,-1.90645 -0.26617,-3.21769 -0.62919,-1.33854 -0.49786,-2.14098 0.41874,-2.55861 0.50424,-0.22975 0.7702,-0.16819 1.4894,0.34477 1.30591,0.93142 3.20023,0.87941 4.05236,-0.11125 1.00483,-1.16818 1.06518,-1.91149 0.28442,-3.50342 -1.17757,-2.40101 -0.17737,-3.51275 2.08033,-2.31233 1.61762,0.8601 2.51816,0.81522 3.65405,-0.18211 0.79106,-0.69456 0.92963,-0.98328 0.92963,-1.93698 0,-0.72254 -0.18689,-1.35836 -0.52598,-1.78945 -0.63575,-0.808214 -0.69832,-2.172774 -0.10999,-2.398534 0.74547,-0.28607 1.76813,-0.1686 2.23856,0.25714 0.25329,0.22923 0.9398,0.48106 1.52558,0.55963 0.95721,0.12839 1.15898,0.0489 1.99286,-0.78497 0.77834,-0.77833 0.92754,-1.11214 0.92609,-2.07184 -0.001,-0.69895 -0.20501,-1.45096 -0.52425,-1.933 -0.70161,-1.05939 -0.66037,-1.60929 0.16105,-2.1475 0.6575,-0.43081 0.73384,-0.42539 1.77521,0.12616 2.05357,1.08766 4.12589,0.5488 4.6528,-1.20985 0.23262,-0.77643 0.2205,-1.17181 -0.0557,-1.81497 -0.3611,-0.84099 -14.95713,-15.87765 -16.22244,-16.71217 -1.85927,-1.22625 -4.24592,0.0925 -4.24841,2.34753 -7.9e-4,0.64599 0.22516,1.48638 0.54538,2.0291 0.61298,1.03894 0.50212,1.83907 -0.31545,2.27662 -0.41528,0.22225 -0.75781,0.14141 -1.67273,-0.39477 -1.38572,-0.81208 -1.94206,-0.8371 -3.2927,-0.14806 -0.80082,0.40855 -1.09164,0.74987 -1.30082,1.52672 -0.30563,1.13499 -0.0279,2.46478 0.6775,3.24427 0.35667,0.39411 0.3873,0.61564 0.15549,1.12442 -0.41539,0.91169 -1.22166,1.07759 -2.23144,0.45916 -0.99078,-0.60681 -1.83863,-0.73986 -2.99317,-0.46972 -1.83286,0.42885 -2.41525,2.36896 -1.32213,4.40435 0.55249,1.02871 0.60531,1.3124 0.3428,1.84095 -0.41637,0.83835 -1.29065,0.91664 -2.42277,0.21695 -1.27536,-0.78822 -3.11829,-0.60548 -3.97843,0.39449 -0.9598,1.11582 -1.0056,1.82292 -0.21592,3.33315 0.84058,1.60757 0.73993,2.50291 -0.31102,2.76668 -0.49291,0.12371 -1.00289,0.006 -1.69181,-0.39049 -0.55443,-0.31909 -1.4408,-0.56758 -2.02457,-0.56758 -0.85939,0 -1.17906,0.16024 -1.8546,0.92963 -1.01815,1.15961 -1.06486,2.26428 -0.15252,3.606904 1.32345,1.94763 0.0729,3.15474 -2.14963,2.07496 -0.63694,-0.30945 -1.4621,-0.56264 -1.83369,-0.56264 -1.05253,0 -2.16719,0.80335 -2.49567,1.79865 -0.50204,1.52118 0.0129,2.56189 2.45615,4.96349 1.19662,1.17625 4.66096,4.66274 7.69853,7.74775 3.03758,3.08501 5.93708,5.81495 6.44335,6.06653 1.00493,0.49938 1.83716,0.41756 2.7848,-0.27381 z m -7.02979,-11.7691 c -1.64304,-1.67101 -3.06123,-3.23911 -3.15154,-3.48466 -0.37826,-1.02844 0.93739,-2.13101 1.91714,-1.60666 0.88061,0.47128 6.26433,6.10615 6.26647,6.55879 10e-4,0.22095 -0.18233,0.66475 -0.4075,0.98623 -0.78704,1.12365 -1.45622,0.76859 -4.62457,-2.4537 z m 6.0062,-6.12519 c -2.27693,-2.30533 -3.07618,-3.28553 -3.07618,-3.77264 0,-0.734704 0.72871,-1.528614 1.40307,-1.528614 0.6,0 6.45795,5.711094 6.65233,6.485564 0.20847,0.83062 -0.53404,1.93023 -1.30337,1.93023 -0.4173,0 -1.53518,-0.94718 -3.67585,-3.11454 z m 6.35209,-6.008634 c -1.71196,-1.69087 -3.18249,-3.29435 -3.26784,-3.56328 -0.23346,-0.73556 0.5682,-1.77819 1.36723,-1.77819 0.96487,0 6.67307,5.87004 6.67361,6.86282 2.7e-4,0.712114 -0.70942,1.552974 -1.31093,1.552974 -0.19217,0 -1.7501,-1.38344 -3.46207,-3.074324 z m 5.9054,-6.25213 c -2.38177,-2.41512 -2.97298,-3.163 -2.97298,-3.76081 0,-0.92443 0.42761,-1.37713 1.30182,-1.37819 0.50933,-5.3e-4 1.4139,0.7543 3.76081,3.13865 1.77127,1.79953 3.09017,3.35394 3.09017,3.64196 0,0.27638 -0.21642,0.69836 -0.48095,0.93775 -0.9936,0.8992 -1.59267,0.57034 -4.69887,-2.57936 z m 8.56537,-3.75747 c -1.63694,-1.32325 -5.4895,-5.58833 -5.4895,-6.07728 0,-0.26498 0.23193,-0.69167 0.51539,-0.9482 0.76682,-0.69397 1.69941,-0.33098 3.21439,1.25113 0.72111,0.75306 2.07097,2.15706 2.99968,3.12 1.74028,1.80442 1.88897,2.28571 0.94183,3.04884 -0.62368,0.50252 -1.20135,0.39808 -2.18179,-0.39449 z m 17.10263,-16.84077 c 4.78726,-4.74222 8.7041,-8.7389 8.7041,-8.88151 0,-0.14261 -1.04291,-1.29736 -2.31756,-2.56611 l -2.31756,-2.30682 -8.91775,8.80432 -8.91775,8.80431 1.70179,1.78503 c 1.92206,2.01606 2.9366,2.96251 3.1887,2.97469 0.0946,0.005 4.08878,-3.87168 8.87603,-8.61391 z M 55.7537,114.02159 c 0.51812,-0.33484 1.12741,-0.33484 0.92047,0 -0.0894,0.14465 -0.42183,0.26118 -0.73875,0.25897 -0.46845,-0.003 -0.50244,-0.0517 -0.18172,-0.25897 z m 3.9449,-3.32995 c 0,-0.15815 0.15109,-0.41295 0.33576,-0.56621 0.18467,-0.15326 0.36252,-0.60203 0.39523,-0.99725 0.0718,-0.86814 0.0437,-0.8368 0.85172,-0.94769 0.359,-0.0493 0.80067,-0.18232 0.98147,-0.29568 0.77872,-0.48822 0.21945,0.34533 -1.11772,1.66589 -0.79555,0.78567 -1.44646,1.2991 -1.44646,1.14094 z M 24.09111,98.351966 c -0.0878,-0.2288 -0.15963,-0.75438 -0.15963,-1.16795 0,-0.78844 -0.30678,-1.11003 -1.18347,-1.24061 -1.2503,-0.18622 -2.24152,-0.67861 -3.15811,-1.5688 -1.20913,-1.17429 -1.70727,-2.31739 -1.70727,-3.91772 0,-2.13579 0.51102,-3.2433 2.4274,-5.26074 0.97927,-1.03092 1.78049,-1.9951 1.78049,-2.14263 0,-0.14753 -1.86396,-2.12194 -4.14214,-4.38758 C 3.60038,64.396906 3.155,63.934756 3.155,63.315776 c 0,-0.83993 7.48034,-8.20472 8.33345,-8.20472 0.72779,0 0.35639,-0.34532 10.76428,10.00838 4.79022,4.76529 8.87508,8.66415 9.07747,8.66415 0.20239,0 1.07617,-0.72265 1.94174,-1.6059 2.74887,-2.805 5.18359,-3.52894 7.67823,-2.28306 1.27691,0.63772 2.82428,2.51443 3.10551,3.76648 0.35327,1.57281 0.4294,1.70044 1.01424,1.70044 0.77041,0 1.71753,0.70487 1.31845,0.98123 -0.16062,0.11123 -0.48911,0.58687 -0.72998,1.05697 -0.32067,0.62586 -0.61725,0.85473 -1.10759,0.85473 -0.3683,0 -1.18738,0.30341 -1.82016,0.67425 -0.91493,0.53618 -1.25746,0.61702 -1.67273,0.39477 -0.81757,-0.43755 -0.92844,-1.23768 -0.31545,-2.27662 0.32021,-0.54272 0.54609,-1.38311 0.54538,-2.0291 -0.002,-2.255 -2.38914,-3.57378 -4.24841,-2.34753 -1.26532,0.83452 -15.86135,15.87118 -16.22245,16.71217 -0.27615,0.64316 -0.28827,1.03854 -0.0557,1.81497 0.52691,1.75865 2.59923,2.29751 4.6528,1.20985 1.04137,-0.55155 1.11771,-0.55697 1.77521,-0.12616 0.81802,0.53598 0.85958,1.01546 0.18347,2.11646 -0.27696,0.45101 -0.56362,1.40661 -0.63703,2.12356 -0.13565,1.32483 -0.69308,2.07108 -1.3568,1.81639 -0.18828,-0.0722 -0.42045,-0.005 -0.51594,0.14956 -0.25012,0.40469 -0.58745,0.34566 -0.77193,-0.13508 z m 1.11737,-18.06471 c 0.3825,-0.32844 1.46126,-1.40125 2.39725,-2.38402 l 1.70179,-1.78686 -8.91775,-8.80431 -8.91775,-8.80431 -2.31756,2.30681 c -1.27466,1.26875 -2.31756,2.4235 -2.31756,2.56611 0,0.25694 17.28465,17.50374 17.54216,17.50374 0.0737,0 0.44693,-0.26873 0.82942,-0.59716 z m 5.25336,9.21019 c -0.94714,-0.76313 -0.79846,-1.24442 0.94183,-3.04884 0.92871,-0.96293 2.27857,-2.36694 2.99968,-3.12 1.51499,-1.58211 2.44757,-1.9451 3.21439,-1.25113 0.28347,0.25653 0.51539,0.68322 0.51539,0.9482 0,0.26498 -1.03383,1.57804 -2.29741,2.91791 -3.56817,3.78363 -4.40328,4.33591 -5.37388,3.55386 z"
     id="path8107" />
  <path
     style="fill:#f2f1f4;stroke:none;fill-opacity:1"
     d="m 40.46346,69.668396 c -1.02267,-0.67365 -1.77268,-2.3764 -2.20277,-5.00095 -0.17781,-1.08504 -0.48847,-2.38943 -0.69034,-2.89864 -0.63994,-1.61419 -0.969,-1.69985 -6.53988,-1.70235 -5.22581,-0.002 -5.59273,-0.0695 -6.90484,-1.26465 -0.75247,-0.68536 -0.78744,-2.18925 -0.083,-3.57002 0.50204,-0.9841 3.49622,-3.97946 3.97788,-3.97946 0.57994,0 0.14701,-0.49377 -1.37248,-1.56535 -0.89128,-0.628548 -2.07339,-1.551958 -2.6269,-2.052024 -2.18395,-1.973062 -4.69188,-6.263869 -5.64981,-9.666232 -0.67235,-2.388042 -0.81038,-10.804108 -0.23714,-14.459722 1.13765,-7.255005 3.56513,-12.432575 7.81034,-16.6586958 4.28811,-4.268827 9.76754,-5.814329 20.68021,-5.832969 2.22531,-0.0038 4.80453,-0.20881895 7.10212,-0.56453795 4.70726,-0.728789 7.86327,-0.588822 11.27033,0.499832 5.20846,1.66425295 8.85268,4.53283195 11.22605,8.83666095 2.07769,3.7676728 2.50285,8.2832328 1.36471,14.4943918 -0.39696,2.166314 -1.17024,5.319402 -1.71838,7.006864 -0.93996,2.893614 -1.55704,4.158019 -4.3504,8.91403 -0.63729,1.085047 -1.15988,2.125724 -1.16132,2.312615 -10e-4,0.186894 0.74749,0.676352 1.66428,1.087688 1.83812,0.824712 2.80481,1.823011 2.80481,2.896523 0,1.103707 -1.25628,3.343516 -2.45635,4.379416 -1.15354,0.99573 -2.98119,1.98832 -5.50972,2.99231 -0.83685,0.33229 -1.66051,0.85508 -1.83034,1.16177 -0.16983,0.30669 -1.28069,2.66454 -2.46858,5.23968 -2.42867,5.26493 -3.08499,6.26586 -4.62309,7.05054 -1.82755,0.93235 -2.57164,0.24126 -3.49874,-3.24951 -0.25935,-0.97654 -0.54543,-1.77553 -0.63573,-1.77553 -0.0903,0 -0.38143,0.4034 -0.64695,0.89644 -0.63311,1.1756 -2.52346,2.5231 -3.53956,2.5231 -0.46071,0 -1.11843,-0.27492 -1.57322,-0.65761 -0.42983,-0.36168 -0.84864,-0.6576 -0.93068,-0.6576 -0.082,0 -0.27371,0.46251 -0.42593,1.02779 -0.33422,1.24118 -1.72441,3.35076 -2.65976,4.03609 -1.04372,0.76475 -2.57697,0.85082 -3.5648,0.20011 z m 3.32454,-2.72896 c 0,-0.29601 1.11847,-4.63284 1.36609,-5.29697 0.43055,-1.15474 2.04631,-2.76193 2.77667,-2.76193 0.41765,0 0.76096,0.26297 1.06454,0.81545 0.85485,1.55569 1.94197,2.92506 2.14302,2.6994 0.11114,-0.12476 0.47842,-0.9093 0.81617,-1.74343 0.74841,-1.84831 2.25618,-3.34967 3.36397,-3.34967 0.89785,0 1.05412,0.30275 1.89431,3.6699 0.94384,3.78254 0.7905,3.86966 3.49923,-1.98824 2.2597,-4.88684 2.49002,-5.27174 3.70323,-6.18856 0.71152,-0.53768 2.47607,-1.43275 3.92122,-1.98903 2.69563,-1.03763 3.78658,-1.910438 3.45805,-2.766588 -0.0896,-0.233513 -1.00748,-0.860262 -2.03972,-1.392774 -1.03223,-0.53251 -2.02748,-1.164173 -2.21166,-1.403696 -0.63535,-0.826251 0.003,-2.463795 2.68083,-6.880452 1.67426,-2.761101 2.48061,-4.587578 3.26025,-7.384837 1.81581,-6.514908 2.16873,-12.235705 0.98178,-15.91454 -1.20461,-3.733558 -3.50331,-6.6761048 -6.96442,-8.9150858 -2.21563,-1.433287 -3.95864,-2.139721 -6.8789,-2.787997 -2.83869,-0.63017 -4.36564,-0.624485 -8.28581,0.03085 -2.07683,0.347185 -5.4058,0.608369 -9.73254,0.763596 -9.98522,0.358231 -12.16172,0.978675 -15.68153,4.470259 -1.6477,1.6344858 -2.21502,2.4309268 -3.19559,4.4861898 -2.22554,4.664702 -2.93543,8.400522 -2.92406,15.387938 0.007,4.309638 0.0875,5.28754 0.58413,7.102125 1.55451,5.679259 4.71927,9.635361 10.01377,12.517704 2.14565,1.1681 2.31942,1.722208 0.94625,3.017278 -0.52784,0.49782 -1.1639,0.90512 -1.41348,0.90512 -0.24957,0 -1.37241,0.60308 -2.49519,1.34017 -2.27031,1.49044 -2.46089,1.9884 -1.13807,2.97363 0.6807,0.50699 1.18249,0.5633 6.09494,0.68399 5.25971,0.12923 5.36561,0.14301 6.06546,0.78913 0.95479,0.8815 1.37386,1.94689 1.84058,4.67917 0.46755,2.73721 0.79727,3.63062 1.52909,4.1432 0.52074,0.36474 0.95739,0.49641 0.95739,0.2887 z m 2.97455,-12.5302 c -0.95726,-0.39046 -1.4812,-1.43823 -1.27332,-2.54633 0.21932,-1.16904 1.6244,-4.00389 2.74717,-5.542613 0.68075,-0.93294 0.96251,-1.117927 1.70277,-1.117927 0.74869,0 1.07746,0.222875 2.10784,1.428958 1.45872,1.707444 2.51817,3.493022 2.52253,4.251432 0.006,0.99899 -0.94387,1.5542 -2.64125,1.54427 -1.38115,-0.008 -1.55081,0.0512 -1.68568,0.58852 -0.27011,1.07621 -2.28256,1.88216 -3.48006,1.39369 z M 37.475,46.419613 c -2.02444,-0.589648 -3.30285,-1.400111 -4.77559,-3.027536 -1.67216,-1.847805 -3.11054,-4.645303 -3.80286,-7.396169 -0.68082,-2.705203 -0.69104,-7.976476 -0.0192,-9.910832 1.72772,-4.974549 7.7735,-7.610138 13.44124,-5.859553 4.83713,1.494037 7.05045,5.813713 7.06963,13.797572 0.016,6.654426 -1.53004,10.109433 -5.32761,11.905971 -1.71271,0.810242 -4.71912,1.034183 -6.58559,0.490547 z m 17.98926,-2.399159 c -2.83123,-1.410861 -3.94231,-4.60007 -2.73074,-7.838268 1.08659,-2.90418 3.59449,-4.899712 6.41462,-5.104103 2.75415,-0.199609 4.1007,1.014825 5.01429,4.52232 1.3341,5.121951 -1.17545,9.053364 -5.78974,9.070103 -1.17852,0.0043 -1.93439,-0.164664 -2.90843,-0.650052 z"
     id="path8089" />
  <path
     id="path2374"
     style="fill:#f2f1f4;stroke:none;fill-opacity:1"
     d="m 25.722461,122.4101 c -2.498829,-1e-4 -4.556401,2.05799 -4.556311,4.55683 -9.8e-5,2.49883 2.057477,4.5564 4.556311,4.55631 2.498545,-2.7e-4 4.554857,-2.05777 4.554759,-4.55631 9e-5,-2.49854 -2.056222,-4.55651 -4.554759,-4.55683 z m 44.767809,1.20303 c -2.498543,-9e-5 -4.556504,2.05828 -4.556826,4.55682 -9e-5,2.49883 2.057997,4.55693 4.556826,4.55683 2.498828,9e-5 4.554852,-2.058 4.554762,-4.55683 -2.65e-4,-2.49854 -2.05622,-4.55691 -4.554762,-4.55682 z m -37.41787,7.35149 c -0.866373,-2.7e-4 -1.602113,0.48269 -2.037085,1.06246 -0.434972,0.57978 -0.648507,1.28027 -0.648539,2.02365 3.7e-5,0.74338 0.213567,1.44388 0.648539,2.02365 0.434972,0.57977 1.170718,1.06277 2.037085,1.06247 0.866116,-1.9e-4 1.602357,-0.48278 2.037086,-1.06247 0.434729,-0.5797 0.648501,-1.28049 0.648538,-2.02365 -3.4e-5,-0.74316 -0.213809,-1.44395 -0.648538,-2.02365 -0.434729,-0.5797 -1.170964,-1.06227 -2.037086,-1.06246 z m 31.136601,1.06866 c -0.86631,2e-4 -1.602375,0.48261 -2.037086,1.06247 -0.434713,0.57987 -0.648684,1.27981 -0.648538,2.02313 3.4e-5,0.74316 0.213812,1.44395 0.648538,2.02365 0.434727,0.5797 1.170964,1.06227 2.037086,1.06247 0.866372,2.6e-4 1.60211,-0.48269 2.037085,-1.06247 0.434972,-0.57978 0.648504,-1.28027 0.648538,-2.02365 1.46e-4,-0.74354 -0.213582,-1.44318 -0.648538,-2.02313 -0.434959,-0.57994 -1.170525,-1.06277 -2.037085,-1.06247 z" />
</svg>
