                <svg width="20" height="20" fill="#FFFFFF" viewBox="0 0 1792 1792" xmlns="http://www.w3.org/2000/svg">
                    <path d="m896 0c-496 0-896 400-896 896v0.17c0 28 1.4 55 3.9 82 14-29 38-55 68-80 51-41 103-62 165-95 98-53 207-74 236-102-51-169-142-431 63-554 162-97 376-139 457 95 81 234 58 271 93 271s102-14 144-127c36-98 53-196 106-232a120 120 0 0 1 35-19c-138-86-300-136-475-136zm-80 163c-27-1.4-59 3.7-99 17 0 2e-5 -142 38-132 191 8.7 135 81 209 230 153v0.37c148-56 176-97 139-209-28-84-58-148-139-152zm37 55a19 19 0 0 1 14 5.2 104 104 0 0 1 17 26 20 20 0 0 1-7 26 20 20 0 0 1-26-8.9 80 80 0 0 0-11-17 19 19 0 0 1 0-26 19 19 0 0 1 12-5.2zm264 12a17 17 0 0 1 15 7.4 15 15 0 0 1-5.2 23 17 17 0 0 1-23-5.4 17 17 0 0 1 5.2-23 17 17 0 0 1 7.9-2.2zm430 50c-0.052 8.9-0.41 18-1.2 26-2.4 84-57 180-85 231-43 72-174 209-248 281a55 55 0 0 0 5.4 83c76 56 193 167 229 258a2226 2226 0 0 1 104 322 102 102 0 0 1 2.5 25c148-160 238-373 238-609v-0.17c0-239-93-456-245-616zm-647 44a17 17 0 0 1 17 12 107 107 0 0 1 7 74 17 17 0 0 1-17 16h-3.5a20 20 0 0 1-16-23 80 80 0 0 0-5.2-52 17 17 0 0 1 10-24 17 17 0 0 1 7.1-2zm-635 10a8.9 8.9 0 1 1-3.5 17v-0.17a7.8 7.8 0 0 1-7.1-10c0-5.2 5.4-7 11-7zm1222 292 19 42 46 11-41 19-10 46-20-40-46-11 42-20zm-1346 42a17 17 0 0 1 15 7.5 16 16 0 0 1-5.4 23h-0.17a17 17 0 0 1-17-28 17 17 0 0 1 8-2.3zm1212 211a20 20 0 0 1 3.9 0.41 19 19 0 1 1-23 14 20 20 0 0 1 19-14zm-814 94a803 803 0 0 0-207 96c-131 98-216 137-275 110a126 126 0 0 1-15-8.9c64 200 195 368 368 479-6.2-12-11-25-15-39-55-204 186-180 202-180 16 0 169-48 95-191-74-144-153-266-153-266zm490 247c-8.4 0.1-17 0.82-26 2.2 0 0 37 322-113 420-78 52-195 96-297 98 94 33 196 52 301 52h0.17c180 0 348-53 488-144a231 231 0 0 1-45 4.8c-147-3.5-116-141-130-220-13-74-54-215-180-213zm-710 2.1a12 12 0 0 1 12 11c0 7.1-3.6 14-11 14a12 12 0 0 1-14-10c-1.7-7.1 3.5-12 11-14v-0.17a12 12 0 0 1 1.8-0.17zm735 310c1.7-0.14 3.4 0.18 5.2 1a14 14 0 1 1-17 11c2.5-6.6 7-11 12-12z" />
                </svg>