<?xml version="1.0" encoding="UTF-8"?>
<svg width="152.15mm" height="88.455mm" version="1.1" viewBox="0 0 152.14679 88.454636" xmlns="http://www.w3.org/2000/svg">
<path fill="#f2f1f4" d="m 101.21353,72.818408 c -0.12828,-0.56903 -0.13316,-1.13256 -0.011,-1.25228 0.12219,-0.11968 0.13127,-0.62107 0.0201,-1.11413 -0.11107,-0.49305 -0.12576,-1.32977 -0.0326,-1.85937 0.12565,-0.71414 0.0851,-0.97171 -0.15691,-0.99688 -0.36671,-0.038 -0.21425,-1.76818 1.05335,-11.95962 0.43918,-3.52988 1.02879,-8.54966 1.3103,-11.15503 l 0.5118,-4.73704 -1.3421,-3.2124 c -0.73817,-1.76683 -2.34208,-5.42803 -3.564252,-8.13599 -2.35943,-5.22788 -3.42726,-8.24608 -2.84662,-8.04595 0.22443,0.0774 0.24492,-0.0713 0.063,-0.45768 -0.25788,-0.54794 -0.53783,-1.28439 -2.73551,-7.19583 -0.56093,-1.50876 -0.89952,-2.7383597 -0.79818,-2.8986197 0.10141,-0.16027 0.31466,-0.0412 0.50295,0.2810397 l 0.32698,0.55939 0.0865,-0.6479697 c 0.2171,-1.62677 1.47617,0.0972 3.29174,4.5062997 0.56206,1.36504 1.725,4.03212 2.58435,5.92685 0.859362,1.89472 2.305462,5.10664 3.213592,7.13761 0.90809,2.03096 1.77294,3.76972 1.9219,3.86388 0.2195,0.13877 0.79624,-2.56809 0.6682,-3.13624 -0.0193,-0.0856 0.0825,-0.68365 0.22587,-1.32902 0.25234,-1.13479 1.30196,-8.87537 1.38474,-10.21185 0.0216,-0.36185 0.27407,-1.7279 0.55925,-3.03575 0.28518,-1.30791 0.50301,-2.44681 0.48406,-2.53094 -0.0848,-0.37611 1.97657,-8.4330097 2.16864,-8.4762897 0.31412,-0.0708 0.0763,4.08602 -0.46882,8.1927497 -0.33094,2.4936 -0.0271,2.92248 0.42852,0.60481 0.18115,-0.92149 0.47952,-2.3484897 0.66306,-3.1711497 0.18355,-0.82264 0.23448,-1.59691 0.11334,-1.72063 -0.12127,-0.12371 -0.10649,-0.25062 0.0325,-0.28202 0.33121,-0.0746 1.17837,-3.51552 0.92836,-3.77065 -0.10568,-0.10792 -0.0264,-0.30675 0.17645,-0.44192 0.20274,-0.13518 0.33216,-0.40758 0.28759,-0.60535 -0.0446,-0.19774 0.0349,-0.38572 0.17707,-0.41771 0.32835,-0.074 0.41928,0.32276 0.22282,0.97054 -0.36847,1.21292 -0.73447,3.75549 -0.53409,3.71033 0.31183,-0.0703 0.24136,0.85589 -0.21304,2.80201 -0.21614,0.92551 -0.36717,1.7974197 -0.33558,1.9375897 0.13772,0.61089 -0.43809,5.85231 -0.88546,8.05969 -0.70137,3.46117 -1.21779,7.01082 -1.11554,7.66766 0.13628,0.87459 0.0113,2.07386 -0.22136,2.12629 -0.1821,0.041 -0.28644,1.29375 -0.15485,1.86117 0.025,0.1087 -0.0874,0.43356 -0.25022,0.72195 -0.18481,0.32735 -0.18313,1.14199 0.004,2.16876 0.19503,1.06772 0.1876,2.43079 -0.0212,3.88664 -0.17685,1.23322 -0.52465,3.63052 -0.7729,5.32735 -0.24822,1.69683 -0.73412,5.79139 -1.07972,9.09905 -0.70819,6.77778 -1.47625,12.00856 -2.0015,13.6311 -0.43235,1.33563 -0.6254,2.85468 -0.45946,3.61535 0.0784,0.36185 -0.10538,0.74862 -0.50841,1.06698 -0.34774,0.2747 -0.7273,0.89213 -0.84349,1.37204 -0.33539,1.3855 -0.70602,2.08327 -1.2861,2.42135 -0.49801,0.29021 -0.55729,0.23495 -0.77257,-0.72026 z m -67.465336,13.33903 c -0.510453,-3.48343 -0.902945,-7.13791 -0.799004,-7.43947 0.05103,-0.14806 -0.203731,-2.13936 -0.566148,-4.42508 -0.362409,-2.28576 -0.877446,-6.12045 -1.144486,-8.5216 -0.26707,-2.4011 -0.71915,-5.35044 -1.004616,-6.55406 -0.517343,-2.18132 -0.521052,-2.18762 -1.143921,-1.95254 -1.387893,0.52386 -4.368036,2.4404 -4.830796,3.1067 -0.271337,0.39066 -0.763609,2.05272 -1.093935,3.69345 -1.186282,5.89232 -1.566781,7.60873 -2.767004,12.48178 -0.716595,2.90944 -1.092058,4.96715 -0.912024,4.99825 0.16831,0.0292 0.117248,0.10508 -0.113474,0.1688 -0.483491,0.13362 -0.919336,-0.39793 -0.829813,-1.01206 0.104474,-0.71671 -0.418501,-0.35252 -0.575856,0.401 -0.228516,1.09426 -0.612559,0.94974 -1.118373,-0.42084 -0.276631,-0.74959 -0.550576,-1.15874 -0.686589,-1.02545 -0.149146,0.14614 -0.319648,-0.3952 -0.500028,-1.5876 -0.202555,-1.33895 -0.142262,-2.50885 0.231926,-4.49988 1.102807,-5.86846 1.58894,-8.83754 1.506729,-9.20234 -0.06244,-0.27707 -0.273383,-0.30189 -0.766169,-0.0902 -0.374011,0.16065 -1.461802,0.61409 -2.417325,1.00754 -0.955527,0.39345 -3.447677,1.52027 -5.5381158,2.50403 -6.730293,3.16733 -8.401194,3.63975 -8.669082,2.45101 -0.130231,-0.57787 1.033328,-2.54478 1.578032,-2.66754 0.137018,-0.0308 0.212417,-0.21904 0.167545,-0.41815 -0.07616,-0.338 2.092624,-1.74085 4.015486,-2.59737 1.136896,-0.50642 0.805457,-0.89973 -0.356729,-0.42335 -0.815635,0.33436 -1.009807,0.33312 -1.086439,-0.007 -0.179713,-0.79744 3.763068,-3.13301 6.8162298,-4.03772 1.116827,-0.33093 2.203959,-0.75166 2.415862,-0.93492 0.211902,-0.18325 0.770254,-0.42064 1.240783,-0.5275 0.470525,-0.10687 1.2638,-0.41344 1.762834,-0.68124 0.717381,-0.38501 0.878909,-0.61308 0.771557,-1.08943 -0.112062,-0.49726 0.05261,-0.6978 0.942647,-1.14805 1.444958,-0.73097 1.557322,-1.03599 2.845931,-7.72616 0.375448,-1.94924 1.025025,-5.08581 1.443498,-6.97017 0.418476,-1.88435 0.874921,-3.93999 1.014323,-4.56809 0.139403,-0.6281 0.33236,-1.58695 0.428794,-2.13078 0.09643,-0.54382 0.357252,-1.82309 0.579605,-2.84281 0.694634,-3.1857 1.8636,-9.97251 1.780884,-10.33953 -0.04342,-0.19267 0.09528,-0.38957 0.308215,-0.43757 0.212943,-0.048 0.419963,0.0584 0.46006,0.2362 0.04008,0.17791 0.6229,0.80936 1.295129,1.40325 l 1.222235,1.07979 0.835864,4.42234 c 0.459727,2.43231 1.480688,8.36567 2.268802,13.18526 1.428378,8.73501 1.43482,8.76367 2.024128,9.0018 0.609903,0.2464 1.009254,1.16336 0.551589,1.26649 -0.141969,0.032 -0.224382,0.20784 -0.183157,0.39076 0.04122,0.18293 -0.05467,0.84058 -0.213085,1.46145 -0.158422,0.62089 -0.197837,1.54043 -0.08761,2.04345 0.110283,0.50297 0.343961,2.34677 0.519388,4.09728 0.175429,1.75051 0.474465,4.42921 0.66454,5.95268 0.190076,1.52345 0.441807,3.78564 0.559395,5.02707 0.117594,1.24146 0.352426,3.32439 0.521844,4.62874 0.357286,2.75033 0.815725,7.57653 1.002717,10.55497 0.128345,2.04437 0.119686,2.07499 -0.634998,2.24506 l -0.765123,0.17241 -0.267899,-1.90598 c -0.29365,-2.08913 -0.536112,-1.65001 -0.342071,0.61955 l 0.119438,1.39697 -1.072733,0.24179 -1.072738,0.24181 -0.336647,-2.29736 z m -5.829113,-36.07699 c 0.547405,-0.36373 1.025967,-0.86823 1.063471,-1.12112 0.06854,-0.46213 -0.594239,-5.58349 -0.906796,-7.00701 -0.270203,-1.23083 -0.548464,-0.40939 -1.253074,3.69973 -0.953207,5.55887 -0.904011,5.75757 1.096399,4.4284 z m 51.944277,23.67747 c -2.23026,-0.2947 -3.25571,-1.17307 -5.47749,-4.6918 -0.70087,-1.10998 -1.63236,-2.48671 -2.06999,-3.05934 -0.871509,-1.14041 -1.550294,-3.34642 -0.967921,-3.14569 0.238644,0.0822 0.248865,-0.0571 0.03365,-0.4664 -0.168398,-0.32101 -0.343275,-0.7409 -0.388626,-0.93312 -0.05108,-0.21697 -0.2284,-0.25215 -0.46731,-0.0929 -0.330236,0.22018 -0.40315,0.0898 -0.514252,-0.92117 -0.07116,-0.64777 -0.267527,-1.26511 -0.436366,-1.37183 -0.380476,-0.24053 -1.52112,-7.6042 -1.605032,-10.36164 -0.0614,-2.01764 0.242004,-6.40714 0.478538,-6.9237 0.07619,-0.16633 0.17924,-0.79981 0.22902,-1.4077 0.05013,-0.60789 0.2012,-1.55742 0.336498,-2.10999 0.135275,-0.55257 0.342412,-1.51463 0.46029,-2.13786 0.316394,-1.67288 3.017181,-8.62562 3.519271,-9.05987 0.23793,-0.20576 0.72078,-0.43907 1.07303,-0.51845 0.48429,-0.10911 1.21789,-1.10992 3.00895,-4.10481 2.06983,-3.46098 2.48162,-3.99556 3.26526,-4.23868 0.49323,-0.15299 1.22426,-0.54546 1.62455,-0.87209 0.40029,-0.32662 0.89249,-0.63096 1.09376,-0.67631 0.20126,-0.0453 0.50089,-0.29596 0.66586,-0.55689 0.43848,-0.69362 1.31514,-0.79505 2.47334,-0.28614 0.56103,0.2465 1.17169,0.41399 1.35707,0.37223 0.82688,-0.1863 0.38985,0.76707 -0.83579,1.82344 -0.7662,0.66037 -1.53779,1.62538 -1.80103,2.25251 l -0.46054,1.09718 0.61828,0.0211 c 0.58662,0.0202 0.57141,0.0906 -0.2964,1.378 -0.50307,0.7463 -1.58093,2.19158 -2.39523,3.21171 -5.98263,7.49495 -9.16375,17.02694 -8.67705,26.00018 0.20419,3.76447 2.02513,8.60233 4.4597,11.84851 0.88219,1.17627 1.34051,1.5358 2.38012,1.86702 1.16921,0.37252 1.34302,0.36322 1.89166,-0.10123 0.66316,-0.56136 3.59568,-5.13488 5.83997,-9.10783 0.78743,-1.39396 1.57165,-2.566 1.74269,-2.60455 0.17103,-0.0385 0.51257,0.19554 0.75892,0.52017 0.48612,0.64052 0.40319,1.28461 -0.45752,3.55353 -0.23331,0.615 -0.32003,1.18375 -0.1927,1.26389 0.25638,0.1614 0.70427,-0.67496 1.10024,-2.05448 0.14237,-0.49592 0.37254,-0.92731 0.51153,-0.95864 0.31413,-0.0707 0.89365,0.85077 0.94335,1.50014 0.11343,1.48143 -2.16588,7.74381 -3.70408,10.17699 -1.26723,2.00455 -3.26005,3.96884 -4.71352,4.64606 -2.01467,0.9387 -3.49144,1.35116 -4.40528,1.23039 z m 60.518122,-15.01657 -2.45899,-0.8647 -0.18452,-1.56275 c -0.10147,-0.85954 -0.34348,-2.27184 -0.53786,-3.13847 -0.3323,-1.48365 -0.31347,-1.61205 0.32857,-2.1972 0.66547,-0.60645 0.73324,-0.61343 2.79736,-0.2878 1.16344,0.18351 2.7667,0.49821 3.56277,0.69925 1.25941,0.31805 1.4454,0.44968 1.43172,1.01321 -0.008,0.35623 0.12245,0.69537 0.29143,0.75357 0.34984,0.12061 1.31032,4.71428 1.00049,4.78518 -0.10642,0.0245 -0.15419,0.21849 -0.10625,0.43143 0.0696,0.30865 -0.29332,0.47293 -1.78926,0.81006 -1.81624,0.40931 -1.95554,0.39508 -4.33555,-0.44183 z m -91.903877,18.14326 c -0.0079,-0.25188 -0.335206,-0.66077 -0.727322,-0.90864 -0.616489,-0.38975 -0.782806,-0.73931 -1.229439,-2.58418 -0.34995,-1.44553 -0.502862,-1.83045 -0.474189,-1.19376 0.03329,0.73948 -0.03092,0.86955 -0.301379,0.61035 -0.699941,-0.67077 -3.015538,-13.442 -3.992203,-22.01829 -0.288938,-2.53728 -1.341901,-10.12287 -1.91653,-13.80709 -0.441481,-2.83051 -0.705935,-5.68096 -0.564996,-6.08989 0.06003,-0.17414 0.290051,-0.35741 0.511171,-0.40723 0.291595,-0.0657 0.394643,0.0787 0.375137,0.5257 -0.01472,0.33897 0.09669,1.4428 0.247734,2.45293 0.327225,2.18833 0.562737,1.33046 0.297636,-1.08414 -0.0919,-0.83701 -0.0593,-1.54615 0.07245,-1.57583 0.131743,-0.0296 0.29034,0.17147 0.352437,0.447 0.156942,0.6964 0.667101,0.81133 0.622462,0.14016 -0.02008,-0.30194 0.0813,-0.5677 0.225315,-0.59061 0.308845,-0.0492 0.544809,1.29812 0.960308,5.4833 0.404748,4.07693 0.654816,5.53027 0.956775,5.56061 0.36698,0.037 0.379659,2.0028 0.01346,2.09023 -0.226537,0.0542 -0.2084,0.11043 0.06739,0.20917 0.297083,0.10643 0.433109,0.63773 0.638951,2.49621 0.522215,4.71486 1.703567,13.49676 2.192764,16.30049 0.39486,2.26302 0.515886,2.66625 0.571854,1.90526 0.03903,-0.53088 0.130623,-1.40586 0.20348,-1.94438 0.07286,-0.53852 0.180728,-1.60024 0.239694,-2.35938 0.193581,-2.49207 1.394323,-10.42204 2.083409,-13.75923 0.161533,-0.78225 0.351501,-1.89301 0.422161,-2.4683 0.130667,-1.06383 0.46828,-1.46166 0.630301,-0.74275 0.04911,0.21795 0.320626,0.62017 0.603373,0.89383 0.524237,0.50741 1.90418,3.02634 5.434111,9.91932 1.46673,2.8641 2.009955,3.72948 2.08815,3.32648 0.05813,-0.29958 0.04643,-2.36209 -0.02589,-4.58334 -0.07237,-2.22124 -0.09246,-4.9628 -0.04464,-6.09236 0.424082,-10.01715 0.65586,-13.4105 0.965572,-14.13618 0.198548,-0.46519 0.250762,-1.01113 0.116081,-1.21319 -0.13473,-0.20208 -0.171669,-0.521 -0.08208,-0.70876 0.08959,-0.18774 0.102052,-0.97903 0.02769,-1.75845 -0.07435,-0.77941 -0.07723,-1.63309 -0.0064,-1.89707 0.259168,-0.96596 0.501346,-3.87989 0.520462,-6.26229 0.02518,-3.13875 0.130341,-3.51477 0.97696,-3.49423 0.528126,0.0122 0.692896,-0.12949 0.812377,-0.7017 0.08244,-0.39476 0.247395,-0.73976 0.366565,-0.76662 0.285985,-0.0645 0.315273,0.12466 0.125534,0.81087 -0.123079,0.44519 -0.01009,0.68708 0.523881,1.12117 0.812362,0.66046 0.885395,0.88577 0.489875,1.51141 -0.164953,0.26094 -0.276427,0.57863 -0.247721,0.70598 0.0287,0.12738 0.21134,0.12548 0.405865,-0.004 0.462821,-0.30859 0.59724,0.30977 0.360241,1.65719 -0.101294,0.57578 -0.222171,1.97215 -0.268572,3.10306 -0.04649,1.13086 -0.12439,2.67537 -0.173169,3.43224 -0.332428,5.15733 -0.588937,11.18409 -0.623571,14.65073 -0.01866,1.86883 -0.05792,4.07455 -0.08716,4.90158 -0.05592,1.57859 0.187666,9.0249 0.510816,15.61559 0.104896,2.13931 0.173378,4.36147 0.152188,4.93811 -0.02124,0.57665 0.112199,1.37042 0.296431,1.76394 0.286243,0.6114 0.256897,0.73307 -0.201768,0.83643 -0.400432,0.0902 -0.4998,0.28482 -0.39131,0.76624 0.192923,0.85606 -0.202818,0.90865 -0.733138,0.0975 -1.597445,-2.44358 -6.865072,-11.76326 -7.548715,-13.35545 -0.161447,-0.376 -0.562286,-1.14003 -0.890748,-1.69779 -0.32846,-0.55775 -0.867163,-1.533 -1.197123,-2.1672 -0.329963,-0.6342 -0.677827,-1.13554 -0.773031,-1.11409 -0.201247,0.0453 -0.390136,1.41189 -1.296311,9.37796 -0.552097,4.85343 -0.955445,7.52606 -2.08685,13.82781 -0.09492,0.52873 -0.560102,0.53501 -0.576665,0.008 z m 89.139547,-29.18776 c -0.848,-1.28165 -2.09241,-5.28825 -2.86264,-9.21664 -0.80565,-4.10915 -0.80688,-4.13399 -0.2832,-5.72132 0.53953,-1.63535 1.9859,-3.9584 2.55704,-4.10696 0.17614,-0.0459 0.30136,-0.17057 0.27828,-0.27724 -0.0233,-0.10663 0.26857,-0.47701 0.64817,-0.82297 0.5057,-0.4609 0.83398,-0.58926 1.22832,-0.48023 0.77683,0.21477 0.84674,0.15645 0.68294,-0.5704 -0.0809,-0.35937 0.0123,-0.7595 0.20646,-0.88919 0.20414,-0.13613 0.28089,-0.55882 0.18154,-0.99978 -0.0947,-0.42014 0.0249,-1.19682 0.26562,-1.72595 1.16797,-2.56652 2.02867,-8.55282 1.54088,-10.71726 -0.22475,-0.9972 -0.18693,-1.16438 0.28757,-1.2713 0.43565,-0.0982 0.49036,-0.23127 0.27013,-0.65701 -0.15188,-0.2936397 -0.18478,-0.7133797 -0.073,-0.9328197 0.14737,-0.28936 0.11936,-0.38005 -0.10178,-0.33017 -0.1677,0.0378 -0.26161,-0.057 -0.20867,-0.2106 0.15339,-0.44503 -0.88203,-0.59885 -1.90162,-0.28251 -0.91611,0.28427 -0.94035,0.27106 -1.14116,-0.62007 -0.11282,-0.50074 -0.25837,-0.82624 -0.32349,-0.72332 -0.065,0.10292 -0.73388,-0.29233 -1.48623,-0.87836 -1.87071,-1.45711 -5.5127,-2.51823 -7.15779,-2.08545 -0.63369,0.16666 -1.31193,0.51723 -1.5072,0.77897 -0.27582,0.36972 -0.53991,0.45474 -1.1839,0.38117 -0.45587,-0.0522 -1.03596,0.0124 -1.28909,0.14334 -0.54645,0.28272 -1.04456,1.67329 -0.87263,2.43618 0.0967,0.42894 -0.0383,0.57704 -0.65243,0.71542 -0.59104,0.13315 -0.74793,0.29162 -0.66282,0.66923 0.0614,0.27208 0.0281,0.55417 -0.0737,0.62684 -0.1018,0.0727 -0.35489,0.6333697 -0.56229,1.2459897 -0.3401,1.00461 -0.30524,1.44908 0.35545,4.53063 0.60242,2.81007 0.84562,3.54538 1.36952,4.14118 0.3503,0.39846 0.68973,0.95864 0.75422,1.24489 0.18047,0.80061 2.21296,1.96477 3.0866,1.76789 0.66055,-0.14887 0.7537,-0.32639 0.92807,-1.76866 0.19602,-1.6207 -0.16353,-5.21931 -0.54548,-5.46079 -0.11403,-0.072 -0.34047,0.26471 -0.5033,0.74839 -0.23531,0.69901 -0.47568,0.91985 -1.17183,1.07676 -0.8114,0.18281 -0.91356,0.1229 -1.38954,-0.81348 -0.48877,-0.96166 -0.48114,-1.09374 0.15694,-2.71491 0.60875,-1.54699 0.77421,-1.74436 1.79486,-2.14083 0.98112,-0.3811 1.47174,-0.36878 3.85202,0.0965 2.33728,0.45702 2.9784,0.7126 4.47929,1.7857 1.32542,0.94765 1.79609,1.44851 1.9345,2.05867 0.10044,0.44351 0.32902,1.1343 0.50757,1.53514 0.26866,0.60315 0.20336,0.93422 -0.38083,1.92059 -0.38801,0.65549 -0.69039,1.26285 -0.67199,1.34972 0.0186,0.0867 -0.19835,0.34359 -0.48168,0.57049 -0.28334,0.2269 -0.82232,0.67428 -1.19773,0.99418 -0.37541,0.3199 -1.13091,0.89397 -1.67884,1.27574 -0.54794,0.38178 -0.9673,0.8226 -0.93192,0.97959 0.0354,0.157 -0.41647,0.59155 -1.00415,0.96563 -1.30243,0.82904 -2.76245,0.91894 -5.39876,0.33239 -3.00298,-0.66812 -4.60021,-1.59581 -5.72647,-3.32604 -0.53806,-0.82654 -1.5272,-2.18406 -2.19813,-3.01668 -1.84822,-2.29363 -2.96018,-4.27121 -3.33374,-5.9289 -0.31119,-1.3808 -0.27582,-1.61187 0.46591,-3.04737 1.28273,-2.4824297 3.58154,-5.5568197 5.40977,-7.2349697 2.11739,-1.94357 7.91779,-3.30437998 13.08405,-3.06954998 3.0277,0.13766 3.67337,0.25991 7.64171,1.44424998 4.57393,1.36544 4.3255,1.20596 7.0446,4.52198 1.09991,1.34135 1.2866,1.7461 1.89478,4.1081797 0.68749,2.6699 0.76971,5.43375 0.22001,7.39072 -0.11869,0.42268 -0.14791,1.07001 -0.0648,1.43851 0.0831,0.36849 0.0426,0.69437 -0.0898,0.72424 -0.13239,0.0298 -0.26156,0.29697 -0.28704,0.59365 -0.0258,0.29666 -0.37464,0.86112 -0.77593,1.25432 -0.51321,0.50284 -0.75212,1.06348 -0.80556,1.89013 -0.0764,1.18014 -0.84994,2.84134 -1.37874,2.9605 -0.4169,0.094 -0.85436,1.65891 -0.68,2.43264 0.11378,0.50491 0.0197,0.69958 -0.38191,0.79008 -0.29307,0.066 -0.75106,0.5414 -1.01775,1.05635 -0.64694,1.24922 -2.51676,2.78252 -3.36803,2.76187 -0.87571,-0.0213 -2.50464,1.46221 -2.53092,2.30489 -0.0145,0.43069 0.48228,1.28244 1.53506,2.63747 1.27661,1.64307 1.5873,2.22208 1.73579,3.23475 0.22849,1.55823 0.1693,2.28785 -0.27208,3.35537 -0.31847,0.77002 -0.45644,0.85806 -1.4592,0.93119 -0.99094,0.0723 -1.16778,0.18085 -1.68034,1.03144 -0.73017,1.2117 -2.10281,1.63059 -2.64719,0.80785 z"/>
</svg>
